<mxfile host="app.diagrams.net" modified="2024-02-21T19:13:31.481Z" agent="Mozilla/5.0 (Windows NT 10.0; Win64; x64) AppleWebKit/537.36 (KHTML, like Gecko) Chrome/120.0.0.0 Safari/537.36 OPR/106.0.0.0" etag="xbT-Com0fgQ3TqHqxs6T" version="23.1.3" type="device">
  <diagram name="Page-1" id="L82AXGJfEvBunI2q0wrG">
    <mxGraphModel dx="1343" dy="745" grid="1" gridSize="10" guides="1" tooltips="1" connect="1" arrows="1" fold="1" page="1" pageScale="1" pageWidth="827" pageHeight="1169" math="0" shadow="0">
      <root>
        <mxCell id="0" />
        <mxCell id="1" parent="0" />
        <mxCell id="lPmFYIHhXlJl8NNzb7Lo-15" style="edgeStyle=orthogonalEdgeStyle;rounded=0;orthogonalLoop=1;jettySize=auto;html=1;entryX=0;entryY=0.5;entryDx=0;entryDy=0;" edge="1" parent="1" source="lPmFYIHhXlJl8NNzb7Lo-1" target="lPmFYIHhXlJl8NNzb7Lo-9">
          <mxGeometry relative="1" as="geometry" />
        </mxCell>
        <mxCell id="lPmFYIHhXlJl8NNzb7Lo-1" value="array de tous les clous du gros algorithmne python" style="rounded=0;whiteSpace=wrap;html=1;" vertex="1" parent="1">
          <mxGeometry x="110" y="140" width="120" height="60" as="geometry" />
        </mxCell>
        <mxCell id="lPmFYIHhXlJl8NNzb7Lo-34" style="edgeStyle=orthogonalEdgeStyle;rounded=0;orthogonalLoop=1;jettySize=auto;html=1;entryX=0.5;entryY=0;entryDx=0;entryDy=0;" edge="1" parent="1" source="lPmFYIHhXlJl8NNzb7Lo-5" target="lPmFYIHhXlJl8NNzb7Lo-31">
          <mxGeometry relative="1" as="geometry" />
        </mxCell>
        <mxCell id="lPmFYIHhXlJl8NNzb7Lo-5" value="Array avec la position XY de chaque clous" style="rounded=1;whiteSpace=wrap;html=1;" vertex="1" parent="1">
          <mxGeometry x="820" y="60" width="120" height="60" as="geometry" />
        </mxCell>
        <mxCell id="lPmFYIHhXlJl8NNzb7Lo-17" style="edgeStyle=orthogonalEdgeStyle;rounded=0;orthogonalLoop=1;jettySize=auto;html=1;entryX=0;entryY=0.5;entryDx=0;entryDy=0;" edge="1" parent="1" source="lPmFYIHhXlJl8NNzb7Lo-9" target="lPmFYIHhXlJl8NNzb7Lo-16">
          <mxGeometry relative="1" as="geometry" />
        </mxCell>
        <mxCell id="lPmFYIHhXlJl8NNzb7Lo-54" value="" style="edgeStyle=orthogonalEdgeStyle;rounded=0;orthogonalLoop=1;jettySize=auto;html=1;" edge="1" parent="1" source="lPmFYIHhXlJl8NNzb7Lo-9" target="lPmFYIHhXlJl8NNzb7Lo-27">
          <mxGeometry relative="1" as="geometry" />
        </mxCell>
        <mxCell id="lPmFYIHhXlJl8NNzb7Lo-9" value="Prendre le clous [i]" style="rounded=0;whiteSpace=wrap;html=1;" vertex="1" parent="1">
          <mxGeometry x="316" y="180" width="114" height="60" as="geometry" />
        </mxCell>
        <mxCell id="lPmFYIHhXlJl8NNzb7Lo-13" style="edgeStyle=orthogonalEdgeStyle;rounded=0;orthogonalLoop=1;jettySize=auto;html=1;entryX=0;entryY=0.5;entryDx=0;entryDy=0;" edge="1" parent="1" source="lPmFYIHhXlJl8NNzb7Lo-11" target="lPmFYIHhXlJl8NNzb7Lo-9">
          <mxGeometry relative="1" as="geometry" />
        </mxCell>
        <mxCell id="lPmFYIHhXlJl8NNzb7Lo-11" value="i" style="rounded=0;whiteSpace=wrap;html=1;" vertex="1" parent="1">
          <mxGeometry x="110" y="220" width="120" height="60" as="geometry" />
        </mxCell>
        <mxCell id="lPmFYIHhXlJl8NNzb7Lo-19" style="edgeStyle=orthogonalEdgeStyle;rounded=0;orthogonalLoop=1;jettySize=auto;html=1;entryX=0.5;entryY=0;entryDx=0;entryDy=0;exitX=0.5;exitY=1;exitDx=0;exitDy=0;" edge="1" parent="1" source="lPmFYIHhXlJl8NNzb7Lo-16" target="lPmFYIHhXlJl8NNzb7Lo-18">
          <mxGeometry relative="1" as="geometry">
            <mxPoint x="540" y="320" as="sourcePoint" />
          </mxGeometry>
        </mxCell>
        <mxCell id="lPmFYIHhXlJl8NNzb7Lo-21" value="SI clous[i] pas dans le range du robot" style="edgeLabel;html=1;align=center;verticalAlign=middle;resizable=0;points=[];" vertex="1" connectable="0" parent="lPmFYIHhXlJl8NNzb7Lo-19">
          <mxGeometry x="-0.4114" y="-1" relative="1" as="geometry">
            <mxPoint x="1" y="52" as="offset" />
          </mxGeometry>
        </mxCell>
        <mxCell id="lPmFYIHhXlJl8NNzb7Lo-32" style="edgeStyle=orthogonalEdgeStyle;rounded=0;orthogonalLoop=1;jettySize=auto;html=1;exitX=1;exitY=0.5;exitDx=0;exitDy=0;entryX=0;entryY=0.5;entryDx=0;entryDy=0;" edge="1" parent="1" source="lPmFYIHhXlJl8NNzb7Lo-16" target="lPmFYIHhXlJl8NNzb7Lo-31">
          <mxGeometry relative="1" as="geometry" />
        </mxCell>
        <mxCell id="lPmFYIHhXlJl8NNzb7Lo-33" value="SI clous[i] est dans le range du robot" style="edgeLabel;html=1;align=center;verticalAlign=middle;resizable=0;points=[];" vertex="1" connectable="0" parent="lPmFYIHhXlJl8NNzb7Lo-32">
          <mxGeometry x="-0.0705" y="2" relative="1" as="geometry">
            <mxPoint as="offset" />
          </mxGeometry>
        </mxCell>
        <mxCell id="lPmFYIHhXlJl8NNzb7Lo-16" value="" style="rhombus;whiteSpace=wrap;html=1;" vertex="1" parent="1">
          <mxGeometry x="500" y="170" width="80" height="80" as="geometry" />
        </mxCell>
        <mxCell id="lPmFYIHhXlJl8NNzb7Lo-25" style="edgeStyle=orthogonalEdgeStyle;rounded=0;orthogonalLoop=1;jettySize=auto;html=1;entryX=1;entryY=0.5;entryDx=0;entryDy=0;" edge="1" parent="1" source="lPmFYIHhXlJl8NNzb7Lo-18" target="lPmFYIHhXlJl8NNzb7Lo-23">
          <mxGeometry relative="1" as="geometry" />
        </mxCell>
        <mxCell id="lPmFYIHhXlJl8NNzb7Lo-18" value="Regarde dans quelle cadran le clou est" style="rounded=0;whiteSpace=wrap;html=1;" vertex="1" parent="1">
          <mxGeometry x="480" y="480" width="120" height="60" as="geometry" />
        </mxCell>
        <mxCell id="lPmFYIHhXlJl8NNzb7Lo-29" style="edgeStyle=orthogonalEdgeStyle;rounded=0;orthogonalLoop=1;jettySize=auto;html=1;entryX=0.5;entryY=1;entryDx=0;entryDy=0;" edge="1" parent="1" source="lPmFYIHhXlJl8NNzb7Lo-22" target="lPmFYIHhXlJl8NNzb7Lo-27">
          <mxGeometry relative="1" as="geometry" />
        </mxCell>
        <mxCell id="lPmFYIHhXlJl8NNzb7Lo-22" value="Envoie la commande pour tourner la table tournante" style="rounded=0;whiteSpace=wrap;html=1;" vertex="1" parent="1">
          <mxGeometry x="311.5" y="390" width="120" height="60" as="geometry" />
        </mxCell>
        <mxCell id="lPmFYIHhXlJl8NNzb7Lo-24" style="edgeStyle=orthogonalEdgeStyle;rounded=0;orthogonalLoop=1;jettySize=auto;html=1;entryX=0.5;entryY=1;entryDx=0;entryDy=0;" edge="1" parent="1" source="lPmFYIHhXlJl8NNzb7Lo-23" target="lPmFYIHhXlJl8NNzb7Lo-22">
          <mxGeometry relative="1" as="geometry" />
        </mxCell>
        <mxCell id="lPmFYIHhXlJl8NNzb7Lo-23" value="Mets le robot en sécurité et lever l&#39;aiguille" style="rounded=0;whiteSpace=wrap;html=1;" vertex="1" parent="1">
          <mxGeometry x="313" y="480" width="117" height="60" as="geometry" />
        </mxCell>
        <mxCell id="lPmFYIHhXlJl8NNzb7Lo-30" style="edgeStyle=orthogonalEdgeStyle;rounded=0;orthogonalLoop=1;jettySize=auto;html=1;" edge="1" parent="1" source="lPmFYIHhXlJl8NNzb7Lo-27">
          <mxGeometry relative="1" as="geometry">
            <mxPoint x="470" y="210" as="targetPoint" />
          </mxGeometry>
        </mxCell>
        <mxCell id="lPmFYIHhXlJl8NNzb7Lo-27" value="Attend de recevoir du arduino que l&#39;angle est bon" style="rounded=0;whiteSpace=wrap;html=1;" vertex="1" parent="1">
          <mxGeometry x="311.5" y="300" width="120" height="60" as="geometry" />
        </mxCell>
        <mxCell id="lPmFYIHhXlJl8NNzb7Lo-42" style="edgeStyle=orthogonalEdgeStyle;rounded=0;orthogonalLoop=1;jettySize=auto;html=1;entryX=0.5;entryY=0;entryDx=0;entryDy=0;" edge="1" parent="1" source="lPmFYIHhXlJl8NNzb7Lo-31" target="lPmFYIHhXlJl8NNzb7Lo-37">
          <mxGeometry relative="1" as="geometry" />
        </mxCell>
        <mxCell id="lPmFYIHhXlJl8NNzb7Lo-31" value="Calculs les angles pour éviter le clous" style="rounded=0;whiteSpace=wrap;html=1;" vertex="1" parent="1">
          <mxGeometry x="820" y="180" width="120" height="60" as="geometry" />
        </mxCell>
        <mxCell id="lPmFYIHhXlJl8NNzb7Lo-44" style="edgeStyle=orthogonalEdgeStyle;rounded=0;orthogonalLoop=1;jettySize=auto;html=1;entryX=0.25;entryY=0;entryDx=0;entryDy=0;" edge="1" parent="1" source="lPmFYIHhXlJl8NNzb7Lo-35" target="lPmFYIHhXlJl8NNzb7Lo-43">
          <mxGeometry relative="1" as="geometry" />
        </mxCell>
        <mxCell id="lPmFYIHhXlJl8NNzb7Lo-35" value="Attend que les moteurs soit au bons angle" style="rounded=0;whiteSpace=wrap;html=1;" vertex="1" parent="1">
          <mxGeometry x="820" y="390" width="120" height="60" as="geometry" />
        </mxCell>
        <mxCell id="lPmFYIHhXlJl8NNzb7Lo-41" value="" style="edgeStyle=orthogonalEdgeStyle;rounded=0;orthogonalLoop=1;jettySize=auto;html=1;" edge="1" parent="1" source="lPmFYIHhXlJl8NNzb7Lo-37" target="lPmFYIHhXlJl8NNzb7Lo-35">
          <mxGeometry relative="1" as="geometry" />
        </mxCell>
        <mxCell id="lPmFYIHhXlJl8NNzb7Lo-37" value="Envoie les angles moteur au arduino" style="rounded=0;whiteSpace=wrap;html=1;" vertex="1" parent="1">
          <mxGeometry x="820" y="280" width="120" height="60" as="geometry" />
        </mxCell>
        <mxCell id="lPmFYIHhXlJl8NNzb7Lo-48" style="edgeStyle=orthogonalEdgeStyle;rounded=0;orthogonalLoop=1;jettySize=auto;html=1;exitX=0.75;exitY=0;exitDx=0;exitDy=0;entryX=0.5;entryY=1;entryDx=0;entryDy=0;" edge="1" parent="1" source="lPmFYIHhXlJl8NNzb7Lo-43" target="lPmFYIHhXlJl8NNzb7Lo-47">
          <mxGeometry relative="1" as="geometry" />
        </mxCell>
        <mxCell id="lPmFYIHhXlJl8NNzb7Lo-43" value="Fonction dans python pour faire un arc de cercle ou carrée" style="rounded=0;whiteSpace=wrap;html=1;" vertex="1" parent="1">
          <mxGeometry x="790" y="490" width="360" height="110" as="geometry" />
        </mxCell>
        <mxCell id="lPmFYIHhXlJl8NNzb7Lo-52" style="edgeStyle=orthogonalEdgeStyle;rounded=0;orthogonalLoop=1;jettySize=auto;html=1;entryX=0;entryY=0.5;entryDx=0;entryDy=0;" edge="1" parent="1" source="lPmFYIHhXlJl8NNzb7Lo-47" target="lPmFYIHhXlJl8NNzb7Lo-51">
          <mxGeometry relative="1" as="geometry" />
        </mxCell>
        <mxCell id="lPmFYIHhXlJl8NNzb7Lo-47" value="Arduino envoie au code Python de switcher de clou quand en sécurité" style="rounded=0;whiteSpace=wrap;html=1;" vertex="1" parent="1">
          <mxGeometry x="980" y="180" width="160" height="60" as="geometry" />
        </mxCell>
        <mxCell id="lPmFYIHhXlJl8NNzb7Lo-53" style="edgeStyle=orthogonalEdgeStyle;rounded=0;orthogonalLoop=1;jettySize=auto;html=1;entryX=0.5;entryY=1;entryDx=0;entryDy=0;" edge="1" parent="1" source="lPmFYIHhXlJl8NNzb7Lo-51" target="lPmFYIHhXlJl8NNzb7Lo-11">
          <mxGeometry relative="1" as="geometry">
            <Array as="points">
              <mxPoint x="1260" y="680" />
              <mxPoint x="170" y="680" />
            </Array>
          </mxGeometry>
        </mxCell>
        <mxCell id="lPmFYIHhXlJl8NNzb7Lo-51" value="Python incremente i" style="rounded=0;whiteSpace=wrap;html=1;" vertex="1" parent="1">
          <mxGeometry x="1200" y="180" width="120" height="60" as="geometry" />
        </mxCell>
      </root>
    </mxGraphModel>
  </diagram>
</mxfile>
